# Blender v2.79 (sub 0) OBJ File: ''
# www.blender.org
mtllib Cup.mtl
o Cylinder
v 0.000000 0.000000 -0.067198
v 0.000000 0.200000 -0.087504
v 0.025716 0.000000 -0.062083
v 0.033486 0.200000 -0.080843
v 0.047516 0.000000 -0.047516
v 0.061874 0.200000 -0.061874
v 0.062083 0.000000 -0.025716
v 0.080843 0.200000 -0.033486
v 0.067198 0.000000 0.000000
v 0.087504 0.200000 0.000000
v 0.062083 0.000000 0.025716
v 0.080843 0.200000 0.033486
v 0.047516 0.000000 0.047516
v 0.061874 0.200000 0.061874
v 0.025716 0.000000 0.062083
v 0.033486 0.200000 0.080843
v 0.000000 0.000000 0.067198
v 0.000000 0.200000 0.087504
v -0.025716 0.000000 0.062083
v -0.033486 0.200000 0.080843
v -0.047516 0.000000 0.047516
v -0.061874 0.200000 0.061874
v -0.062083 0.000000 0.025716
v -0.080843 0.200000 0.033486
v -0.067198 0.000000 -0.000000
v -0.087504 0.200000 -0.000000
v -0.062083 0.000000 -0.025716
v -0.080843 0.200000 -0.033486
v -0.047516 0.000000 -0.047516
v -0.061874 0.200000 -0.061874
v -0.025716 0.000000 -0.062083
v -0.033486 0.200000 -0.080843
v 0.028043 0.200000 -0.067702
v 0.000000 0.200000 -0.073280
v 0.051817 0.200000 -0.051817
v 0.067702 0.200000 -0.028043
v 0.073280 0.200000 0.000000
v 0.067702 0.200000 0.028043
v 0.051817 0.200000 0.051817
v 0.028043 0.200000 0.067702
v 0.000000 0.200000 0.073280
v -0.028043 0.200000 0.067702
v -0.051817 0.200000 0.051817
v -0.067702 0.200000 0.028043
v -0.073280 0.200000 -0.000000
v -0.067702 0.200000 -0.028043
v -0.051817 0.200000 -0.051817
v -0.028043 0.200000 -0.067702
v 0.021252 0.013787 -0.051307
v 0.000000 0.013787 -0.055535
v 0.039269 0.013787 -0.039269
v 0.051307 0.013787 -0.021252
v 0.055535 0.013787 0.000000
v 0.051307 0.013787 0.021252
v 0.039269 0.013787 0.039269
v 0.021252 0.013787 0.051307
v 0.000000 0.013787 0.055535
v -0.021252 0.013787 0.051307
v -0.039269 0.013787 0.039269
v -0.051307 0.013787 0.021252
v -0.055535 0.013787 -0.000000
v -0.051307 0.013787 -0.021252
v -0.039269 0.013787 -0.039269
v -0.021252 0.013787 -0.051307
v 0.000000 0.013787 0.000000
v -0.000000 0.000000 0.000000
vt 0.418532 0.290658
vt 0.031842 0.265773
vt 0.034702 0.202353
vt 0.423399 0.235269
vt 0.038070 0.138190
vt 0.429420 0.179659
vt 0.040486 0.072140
vt 0.436646 0.123823
vt 0.037390 0.000131
vt 0.445207 0.067708
vt 0.445207 0.930020
vt 0.070915 0.999869
vt 0.070764 0.936389
vt 0.437061 0.881032
vt 0.064944 0.877455
vt 0.430022 0.828927
vt 0.057554 0.818480
vt 0.424107 0.776592
vt 0.050361 0.758952
vt 0.419242 0.723924
vt 0.043995 0.698847
vt 0.415415 0.670895
vt 0.038691 0.638223
vt 0.412631 0.617510
vt 0.034538 0.577132
vt 0.410904 0.563782
vt 0.031577 0.515614
vt 0.410245 0.509730
vt 0.029827 0.453698
vt 0.410666 0.455372
vt 0.029299 0.391410
vt 0.412179 0.400727
vt 0.008205 0.136833
vt 0.009878 0.072682
vt 0.029986 0.328769
vt 0.414797 0.345816
vt 0.445779 0.612266
vt 0.445469 0.595513
vt 0.555089 0.595513
vt 0.555324 0.608209
vt 0.030083 0.821778
vt 0.022477 0.761973
vt 0.002393 0.264489
vt 0.005104 0.200755
vt 0.002746 0.516525
vt 0.000821 0.454039
vt 0.044502 0.937564
vt 0.038035 0.880481
vt 0.010260 0.640251
vt 0.005897 0.578607
vt 0.000672 0.327982
vt 0.004789 0.008132
vt 0.015808 0.701404
vt 0.000131 0.391180
vt 0.043516 0.993919
vt 0.643911 0.234209
vt 0.597350 0.253495
vt 0.572151 0.126813
vt 0.456589 0.495796
vt 0.460582 0.479523
vt 0.566542 0.507611
vt 0.563516 0.519944
vt 0.446709 0.628996
vt 0.556029 0.620888
vt 0.453201 0.512206
vt 0.560949 0.532380
vt 0.448258 0.645681
vt 0.557203 0.633532
vt 0.450423 0.528730
vt 0.558843 0.544902
vt 0.453201 0.678820
vt 0.450423 0.662296
vt 0.558843 0.646124
vt 0.560949 0.658646
vt 0.448258 0.545346
vt 0.557203 0.557494
vt 0.456589 0.695230
vt 0.563516 0.671082
vt 0.446709 0.562030
vt 0.556029 0.570138
vt 0.460582 0.711503
vt 0.566542 0.683415
vt 0.445779 0.578760
vt 0.555324 0.582817
vt 0.465174 0.727618
vt 0.570023 0.695627
vt 0.465174 0.463409
vt 0.570023 0.495399
vt 0.654858 0.379277
vt 0.638919 0.417756
vt 0.550164 0.358452
vt 0.609469 0.447208
vt 0.570989 0.463146
vt 0.529339 0.463146
vt 0.490859 0.447208
vt 0.461408 0.417757
vt 0.445469 0.379277
vt 0.445469 0.337627
vt 0.461408 0.299148
vt 0.490859 0.269696
vt 0.529338 0.253758
vt 0.570989 0.253758
vt 0.609468 0.269696
vt 0.638919 0.299147
vt 0.654858 0.337627
vt 0.546953 0.253495
vt 0.500392 0.234209
vt 0.464756 0.198573
vt 0.445469 0.152012
vt 0.445469 0.101615
vt 0.464755 0.055054
vt 0.500392 0.019417
vt 0.546953 0.000131
vt 0.597350 0.000131
vt 0.643911 0.019417
vt 0.679547 0.055054
vt 0.698834 0.101615
vt 0.698834 0.152012
vt 0.679547 0.198573
vn 0.0000 -0.7024 -0.7117
vn 0.0000 0.6277 -0.7784
vn 0.2979 0.6277 -0.7192
vn 0.2723 -0.7024 -0.6575
vn 0.5504 0.6277 -0.5504
vn 0.5033 -0.7024 -0.5033
vn 0.7192 0.6277 -0.2979
vn 0.6575 -0.7024 -0.2723
vn 0.7784 0.6277 0.0000
vn 0.7117 -0.7024 0.0000
vn 0.7192 0.6277 0.2979
vn 0.6575 -0.7024 0.2723
vn 0.5504 0.6277 0.5504
vn 0.5033 -0.7024 0.5033
vn 0.2979 0.6277 0.7192
vn 0.2723 -0.7024 0.6575
vn 0.0000 0.6277 0.7784
vn 0.0000 -0.7024 0.7117
vn -0.2979 0.6277 0.7192
vn -0.2723 -0.7024 0.6575
vn -0.5504 0.6277 0.5504
vn -0.5033 -0.7024 0.5033
vn -0.7192 0.6277 0.2979
vn -0.6575 -0.7024 0.2723
vn -0.7784 0.6277 0.0000
vn -0.7117 -0.7024 0.0000
vn -0.7192 0.6277 -0.2979
vn -0.6575 -0.7024 -0.2723
vn -0.5504 0.6277 -0.5504
vn -0.5033 -0.7024 -0.5033
vn -0.4393 0.7835 0.4393
vn -0.5740 0.7835 0.2378
vn -0.2979 0.6277 -0.7192
vn -0.2723 -0.7024 -0.6575
vn 0.5740 0.7835 0.2378
vn 0.6213 0.7835 0.0000
vn 0.7139 0.7002 0.0000
vn 0.6595 0.7002 0.2732
vn -0.2378 0.7835 -0.5740
vn 0.0000 0.7835 -0.6213
vn 0.0000 0.7835 0.6213
vn -0.2378 0.7835 0.5740
vn -0.5740 0.7835 -0.2378
vn -0.4393 0.7835 -0.4393
vn 0.4393 0.7835 -0.4393
vn 0.5740 0.7835 -0.2378
vn 0.2378 0.7835 0.5740
vn -0.6213 0.7835 0.0000
vn 0.2378 0.7835 -0.5740
vn 0.4393 0.7835 0.4393
vn 0.0000 -1.0000 0.0000
vn -0.6595 0.7002 -0.2732
vn -0.5048 0.7002 -0.5048
vn 0.5048 0.7002 0.5048
vn -0.2732 0.7002 -0.6595
vn 0.2732 0.7002 0.6595
vn 0.0000 0.7002 -0.7139
vn 0.0000 0.7002 0.7139
vn -0.2732 0.7002 0.6595
vn 0.2732 0.7002 -0.6595
vn -0.5048 0.7002 0.5048
vn 0.5048 0.7002 -0.5048
vn -0.6595 0.7002 0.2732
vn 0.6595 0.7002 -0.2732
vn -0.7139 0.7002 0.0000
vn 0.0000 1.0000 0.0000
usemtl Cup_Mat
s 1
f 1/1/1 2/2/2 4/3/3 3/4/4
f 3/4/4 4/3/3 6/5/5 5/6/6
f 5/6/6 6/5/5 8/7/7 7/8/8
f 7/8/8 8/7/7 10/9/9 9/10/10
f 9/11/10 10/12/9 12/13/11 11/14/12
f 11/14/12 12/13/11 14/15/13 13/16/14
f 13/16/14 14/15/13 16/17/15 15/18/16
f 15/18/16 16/17/15 18/19/17 17/20/18
f 17/20/18 18/19/17 20/21/19 19/22/20
f 19/22/20 20/21/19 22/23/21 21/24/22
f 21/24/22 22/23/21 24/25/23 23/26/24
f 23/26/24 24/25/23 26/27/25 25/28/26
f 25/28/26 26/27/25 28/29/27 27/30/28
f 27/30/28 28/29/27 30/31/29 29/32/30
f 8/7/7 6/5/5 35/33/31 36/34/32
f 29/32/30 30/31/29 32/35/33 31/36/34
f 31/36/34 32/35/33 2/2/2 1/1/1
f 46/37/35 45/38/36 61/39/37 62/40/38
f 18/19/17 16/17/15 40/41/39 41/42/40
f 4/3/3 2/2/2 34/43/41 33/44/42
f 28/29/27 26/27/25 45/45/36 46/46/35
f 14/15/13 12/13/11 38/47/43 39/48/44
f 24/25/23 22/23/21 43/49/45 44/50/46
f 2/2/2 32/35/33 48/51/47 34/43/41
f 10/9/9 8/7/7 36/34/32 37/52/48
f 20/21/19 18/19/17 41/42/40 42/53/49
f 30/31/29 28/29/27 46/46/35 47/54/50
f 6/5/5 4/3/3 33/44/42 35/33/31
f 16/17/15 14/15/13 39/48/44 40/41/39
f 26/27/25 24/25/23 44/50/46 45/45/36
f 12/13/11 10/12/9 37/55/48 38/47/43
f 22/23/21 20/21/19 42/53/49 43/49/45
f 32/35/33 30/31/29 47/54/50 48/51/47
f 1/56/1 3/57/4 66/58/51
f 39/59/44 38/60/43 54/61/52 55/62/53
f 47/63/50 46/37/35 62/40/38 63/64/54
f 40/65/39 39/59/44 55/62/53 56/66/55
f 48/67/47 47/63/50 63/64/54 64/68/56
f 41/69/40 40/65/39 56/66/55 57/70/57
f 33/71/42 34/72/41 50/73/58 49/74/59
f 34/72/41 48/67/47 64/68/56 50/73/58
f 42/75/49 41/69/40 57/70/57 58/76/60
f 35/77/31 33/71/42 49/74/59 51/78/61
f 43/79/45 42/75/49 58/76/60 59/80/62
f 36/81/32 35/77/31 51/78/61 52/82/63
f 44/83/46 43/79/45 59/80/62 60/84/64
f 37/85/48 36/81/32 52/82/63 53/86/65
f 45/38/36 44/83/46 60/84/64 61/39/37
f 38/60/43 37/87/48 53/88/65 54/61/52
f 49/89/59 50/90/58 65/91/66
f 50/90/58 64/92/56 65/91/66
f 64/92/56 63/93/54 65/91/66
f 63/93/54 62/94/38 65/91/66
f 62/94/38 61/95/37 65/91/66
f 61/95/37 60/96/64 65/91/66
f 60/96/64 59/97/62 65/91/66
f 59/97/62 58/98/60 65/91/66
f 58/98/60 57/99/57 65/91/66
f 57/99/57 56/100/55 65/91/66
f 56/100/55 55/101/53 65/91/66
f 55/101/53 54/102/52 65/91/66
f 54/102/52 53/103/65 65/91/66
f 53/103/65 52/104/63 65/91/66
f 52/104/63 51/105/61 65/91/66
f 51/105/61 49/89/59 65/91/66
f 3/57/4 5/106/6 66/58/51
f 5/106/6 7/107/8 66/58/51
f 7/107/8 9/108/10 66/58/51
f 9/108/10 11/109/12 66/58/51
f 11/109/12 13/110/14 66/58/51
f 13/110/14 15/111/16 66/58/51
f 15/111/16 17/112/18 66/58/51
f 17/112/18 19/113/20 66/58/51
f 19/113/20 21/114/22 66/58/51
f 21/114/22 23/115/24 66/58/51
f 23/115/24 25/116/26 66/58/51
f 25/116/26 27/117/28 66/58/51
f 27/117/28 29/118/30 66/58/51
f 29/118/30 31/119/34 66/58/51
f 31/119/34 1/56/1 66/58/51
